<mxfile host="app.diagrams.net" agent="Mozilla/5.0 (Windows NT 10.0; Win64; x64) AppleWebKit/537.36 (KHTML, like Gecko) Chrome/130.0.0.0 YaBrowser/24.12.0.0 Safari/537.36" version="26.0.9">
  <diagram name="Страница — 1" id="ach-z4WaHui-Mm764wKD">
    <mxGraphModel dx="1631" dy="921" grid="1" gridSize="10" guides="1" tooltips="1" connect="1" arrows="1" fold="1" page="1" pageScale="1" pageWidth="827" pageHeight="1169" math="0" shadow="0">
      <root>
        <mxCell id="0" />
        <mxCell id="1" parent="0" />
        <mxCell id="5EXkjH5iPOSi6bN8dco_-1" value="Пользователь" style="shape=umlActor;verticalLabelPosition=bottom;verticalAlign=top;html=1;outlineConnect=0;" parent="1" vertex="1">
          <mxGeometry x="100" y="310" width="30" height="60" as="geometry" />
        </mxCell>
        <mxCell id="5EXkjH5iPOSi6bN8dco_-2" value="" style="endArrow=none;html=1;rounded=0;" parent="1" edge="1">
          <mxGeometry width="50" height="50" relative="1" as="geometry">
            <mxPoint x="140" y="320" as="sourcePoint" />
            <mxPoint x="190" y="270" as="targetPoint" />
          </mxGeometry>
        </mxCell>
        <mxCell id="5EXkjH5iPOSi6bN8dco_-3" value="Прикладывание карточки к считывателю" style="ellipse;whiteSpace=wrap;html=1;" parent="1" vertex="1">
          <mxGeometry x="180" y="210" width="120" height="80" as="geometry" />
        </mxCell>
        <mxCell id="5EXkjH5iPOSi6bN8dco_-5" value="Срок истёк" style="ellipse;whiteSpace=wrap;html=1;" parent="1" vertex="1">
          <mxGeometry x="240" y="20" width="120" height="80" as="geometry" />
        </mxCell>
        <mxCell id="5EXkjH5iPOSi6bN8dco_-6" value="Проверка доступа" style="ellipse;whiteSpace=wrap;html=1;" parent="1" vertex="1">
          <mxGeometry x="350" y="145" width="120" height="80" as="geometry" />
        </mxCell>
        <mxCell id="5EXkjH5iPOSi6bN8dco_-7" value="" style="endArrow=classic;html=1;rounded=0;entryX=0;entryY=0.5;entryDx=0;entryDy=0;dashed=1;" parent="1" target="5EXkjH5iPOSi6bN8dco_-6" edge="1">
          <mxGeometry width="50" height="50" relative="1" as="geometry">
            <mxPoint x="300" y="250" as="sourcePoint" />
            <mxPoint x="350" y="200" as="targetPoint" />
          </mxGeometry>
        </mxCell>
        <mxCell id="5EXkjH5iPOSi6bN8dco_-8" value="&amp;lt;&amp;lt;include&amp;gt;&amp;gt;" style="text;html=1;align=center;verticalAlign=middle;whiteSpace=wrap;rounded=0;rotation=-60;" parent="1" vertex="1">
          <mxGeometry x="290" y="195" width="60" height="30" as="geometry" />
        </mxCell>
        <mxCell id="5EXkjH5iPOSi6bN8dco_-9" value="Разрешено" style="ellipse;whiteSpace=wrap;html=1;" parent="1" vertex="1">
          <mxGeometry x="500" y="240" width="120" height="80" as="geometry" />
        </mxCell>
        <mxCell id="5EXkjH5iPOSi6bN8dco_-10" value="Нет в БД" style="ellipse;whiteSpace=wrap;html=1;" parent="1" vertex="1">
          <mxGeometry x="520" y="45" width="120" height="80" as="geometry" />
        </mxCell>
        <mxCell id="jrMB8tSXiYXUEJk1DFbN-1" value="" style="endArrow=classic;html=1;rounded=0;entryX=0.967;entryY=0.65;entryDx=0;entryDy=0;dashed=1;entryPerimeter=0;" parent="1" source="5EXkjH5iPOSi6bN8dco_-9" target="5EXkjH5iPOSi6bN8dco_-6" edge="1">
          <mxGeometry width="50" height="50" relative="1" as="geometry">
            <mxPoint x="300" y="350" as="sourcePoint" />
            <mxPoint x="350" y="300" as="targetPoint" />
          </mxGeometry>
        </mxCell>
        <mxCell id="jrMB8tSXiYXUEJk1DFbN-4" value="" style="endArrow=classic;html=1;rounded=0;exitX=0.068;exitY=0.776;exitDx=0;exitDy=0;exitPerimeter=0;dashed=1;" parent="1" source="5EXkjH5iPOSi6bN8dco_-10" target="5EXkjH5iPOSi6bN8dco_-6" edge="1">
          <mxGeometry width="50" height="50" relative="1" as="geometry">
            <mxPoint x="620" y="350" as="sourcePoint" />
            <mxPoint x="670" y="300" as="targetPoint" />
          </mxGeometry>
        </mxCell>
        <mxCell id="jrMB8tSXiYXUEJk1DFbN-5" value="&amp;lt;&amp;lt;extend&amp;gt;&amp;gt;" style="text;html=1;align=center;verticalAlign=middle;whiteSpace=wrap;rounded=0;rotation=45;" parent="1" vertex="1">
          <mxGeometry x="470" y="200" width="60" height="30" as="geometry" />
        </mxCell>
        <mxCell id="jrMB8tSXiYXUEJk1DFbN-8" value="&amp;lt;&amp;lt;extend&amp;gt;&amp;gt;" style="text;html=1;align=center;verticalAlign=middle;whiteSpace=wrap;rounded=0;rotation=-35;" parent="1" vertex="1">
          <mxGeometry x="480" y="125" width="60" height="30" as="geometry" />
        </mxCell>
        <mxCell id="dELnSr-HytfLNmatg29h-1" value="" style="endArrow=none;html=1;rounded=0;" parent="1" edge="1">
          <mxGeometry width="50" height="50" relative="1" as="geometry">
            <mxPoint x="260" y="510" as="sourcePoint" />
            <mxPoint x="140" y="350" as="targetPoint" />
          </mxGeometry>
        </mxCell>
        <mxCell id="dELnSr-HytfLNmatg29h-2" value="Ввод пин-кода" style="ellipse;whiteSpace=wrap;html=1;" parent="1" vertex="1">
          <mxGeometry x="260" y="470" width="120" height="80" as="geometry" />
        </mxCell>
        <mxCell id="dELnSr-HytfLNmatg29h-26" style="edgeStyle=orthogonalEdgeStyle;rounded=0;orthogonalLoop=1;jettySize=auto;html=1;exitX=0;exitY=1;exitDx=0;exitDy=0;" parent="1" source="dELnSr-HytfLNmatg29h-3" edge="1">
          <mxGeometry relative="1" as="geometry">
            <mxPoint x="488" y="600" as="targetPoint" />
          </mxGeometry>
        </mxCell>
        <mxCell id="dELnSr-HytfLNmatg29h-3" value="Проверка доступа" style="ellipse;whiteSpace=wrap;html=1;" parent="1" vertex="1">
          <mxGeometry x="470" y="550" width="120" height="80" as="geometry" />
        </mxCell>
        <mxCell id="dELnSr-HytfLNmatg29h-5" value="&amp;lt;&amp;lt;include&amp;gt;&amp;gt;" style="text;html=1;align=center;verticalAlign=middle;whiteSpace=wrap;rounded=0;rotation=5;" parent="1" vertex="1">
          <mxGeometry x="380" y="570" width="60" height="30" as="geometry" />
        </mxCell>
        <mxCell id="dELnSr-HytfLNmatg29h-6" value="" style="endArrow=classic;html=1;rounded=0;dashed=1;exitX=1;exitY=1;exitDx=0;exitDy=0;entryX=0;entryY=0.5;entryDx=0;entryDy=0;" parent="1" source="dELnSr-HytfLNmatg29h-2" target="dELnSr-HytfLNmatg29h-3" edge="1">
          <mxGeometry width="50" height="50" relative="1" as="geometry">
            <mxPoint x="380" y="510" as="sourcePoint" />
            <mxPoint x="460" y="580" as="targetPoint" />
          </mxGeometry>
        </mxCell>
        <mxCell id="jrMB8tSXiYXUEJk1DFbN-7" value="&amp;lt;&amp;lt;extend&amp;gt;&amp;gt;" style="text;html=1;align=center;verticalAlign=middle;whiteSpace=wrap;rounded=0;rotation=26;" parent="1" vertex="1">
          <mxGeometry x="330" y="100" width="60" height="30" as="geometry" />
        </mxCell>
        <mxCell id="dELnSr-HytfLNmatg29h-14" value="" style="endArrow=classic;html=1;rounded=0;entryX=0.942;entryY=0.3;entryDx=0;entryDy=0;entryPerimeter=0;dashed=1;" parent="1" source="dELnSr-HytfLNmatg29h-28" target="dELnSr-HytfLNmatg29h-3" edge="1">
          <mxGeometry width="50" height="50" relative="1" as="geometry">
            <mxPoint x="620" y="450" as="sourcePoint" />
            <mxPoint x="630" y="410" as="targetPoint" />
          </mxGeometry>
        </mxCell>
        <mxCell id="dELnSr-HytfLNmatg29h-15" value="&amp;lt;&amp;lt;extend&amp;gt;&amp;gt;" style="text;html=1;align=center;verticalAlign=middle;whiteSpace=wrap;rounded=0;rotation=-25;" parent="1" vertex="1">
          <mxGeometry x="600" y="560" width="60" height="30" as="geometry" />
        </mxCell>
        <mxCell id="dELnSr-HytfLNmatg29h-16" value="Проход на закрытую территорию" style="ellipse;whiteSpace=wrap;html=1;" parent="1" vertex="1">
          <mxGeometry x="200" y="335" width="120" height="80" as="geometry" />
        </mxCell>
        <mxCell id="dELnSr-HytfLNmatg29h-17" value="Разрешение доступа на закрытую территорию" style="ellipse;whiteSpace=wrap;html=1;" parent="1" vertex="1">
          <mxGeometry x="380" y="360" width="130" height="90" as="geometry" />
        </mxCell>
        <mxCell id="dELnSr-HytfLNmatg29h-19" value="" style="endArrow=classic;html=1;rounded=0;dashed=1;exitX=0;exitY=1;exitDx=0;exitDy=0;" parent="1" source="5EXkjH5iPOSi6bN8dco_-9" target="dELnSr-HytfLNmatg29h-17" edge="1">
          <mxGeometry width="50" height="50" relative="1" as="geometry">
            <mxPoint x="410" y="230" as="sourcePoint" />
            <mxPoint x="429" y="365" as="targetPoint" />
          </mxGeometry>
        </mxCell>
        <mxCell id="dELnSr-HytfLNmatg29h-21" value="" style="endArrow=classic;html=1;rounded=0;exitX=0;exitY=0.5;exitDx=0;exitDy=0;entryX=1;entryY=0.5;entryDx=0;entryDy=0;dashed=1;" parent="1" source="dELnSr-HytfLNmatg29h-17" target="dELnSr-HytfLNmatg29h-16" edge="1">
          <mxGeometry width="50" height="50" relative="1" as="geometry">
            <mxPoint x="330" y="420" as="sourcePoint" />
            <mxPoint x="380" y="370" as="targetPoint" />
          </mxGeometry>
        </mxCell>
        <mxCell id="dELnSr-HytfLNmatg29h-22" value="" style="endArrow=none;html=1;rounded=0;entryX=0;entryY=0.313;entryDx=0;entryDy=0;entryPerimeter=0;" parent="1" target="dELnSr-HytfLNmatg29h-16" edge="1">
          <mxGeometry width="50" height="50" relative="1" as="geometry">
            <mxPoint x="140" y="340" as="sourcePoint" />
            <mxPoint x="200" y="340" as="targetPoint" />
          </mxGeometry>
        </mxCell>
        <mxCell id="dELnSr-HytfLNmatg29h-23" value="&amp;lt;&amp;lt;include&amp;gt;&amp;gt;" style="text;html=1;align=center;verticalAlign=middle;whiteSpace=wrap;rounded=0;rotation=25;" parent="1" vertex="1">
          <mxGeometry x="330" y="335" width="60" height="30" as="geometry" />
        </mxCell>
        <mxCell id="dELnSr-HytfLNmatg29h-24" value="&amp;lt;&amp;lt;include&amp;gt;&amp;gt;" style="text;html=1;align=center;verticalAlign=middle;whiteSpace=wrap;rounded=0;rotation=-50;dashed=1;" parent="1" vertex="1">
          <mxGeometry x="460" y="310" width="60" height="30" as="geometry" />
        </mxCell>
        <mxCell id="dELnSr-HytfLNmatg29h-25" style="edgeStyle=orthogonalEdgeStyle;rounded=0;orthogonalLoop=1;jettySize=auto;html=1;exitX=1;exitY=0;exitDx=0;exitDy=0;entryX=0.775;entryY=0.113;entryDx=0;entryDy=0;entryPerimeter=0;" parent="1" source="5EXkjH5iPOSi6bN8dco_-10" target="5EXkjH5iPOSi6bN8dco_-10" edge="1">
          <mxGeometry relative="1" as="geometry" />
        </mxCell>
        <mxCell id="dELnSr-HytfLNmatg29h-28" value="Разрешено" style="ellipse;whiteSpace=wrap;html=1;" parent="1" vertex="1">
          <mxGeometry x="600" y="420" width="120" height="80" as="geometry" />
        </mxCell>
        <mxCell id="M2ERTbPlnBYSGBzTKAcE-1" value="" style="endArrow=classic;html=1;rounded=0;entryX=0.5;entryY=0;entryDx=0;entryDy=0;dashed=1;" edge="1" parent="1" target="5EXkjH5iPOSi6bN8dco_-6">
          <mxGeometry width="50" height="50" relative="1" as="geometry">
            <mxPoint x="300" y="100" as="sourcePoint" />
            <mxPoint x="350" y="50" as="targetPoint" />
          </mxGeometry>
        </mxCell>
        <mxCell id="M2ERTbPlnBYSGBzTKAcE-3" value="Доступ запрещён" style="ellipse;whiteSpace=wrap;html=1;" vertex="1" parent="1">
          <mxGeometry x="660" y="530" width="120" height="80" as="geometry" />
        </mxCell>
        <mxCell id="M2ERTbPlnBYSGBzTKAcE-4" value="" style="endArrow=classic;html=1;rounded=0;exitX=0;exitY=0.5;exitDx=0;exitDy=0;" edge="1" parent="1" source="M2ERTbPlnBYSGBzTKAcE-3">
          <mxGeometry width="50" height="50" relative="1" as="geometry">
            <mxPoint x="540" y="650" as="sourcePoint" />
            <mxPoint x="590" y="600" as="targetPoint" />
          </mxGeometry>
        </mxCell>
        <mxCell id="M2ERTbPlnBYSGBzTKAcE-5" value="&amp;lt;&amp;lt;extend&amp;gt;&amp;gt;" style="text;html=1;align=center;verticalAlign=middle;whiteSpace=wrap;rounded=0;rotation=-55;" vertex="1" parent="1">
          <mxGeometry x="570" y="520" width="60" height="30" as="geometry" />
        </mxCell>
        <mxCell id="M2ERTbPlnBYSGBzTKAcE-6" value="&amp;lt;&amp;lt;include&amp;gt;&amp;gt;" style="text;html=1;align=center;verticalAlign=middle;whiteSpace=wrap;rounded=0;rotation=15;dashed=1;" vertex="1" parent="1">
          <mxGeometry x="530" y="420" width="60" height="30" as="geometry" />
        </mxCell>
        <mxCell id="M2ERTbPlnBYSGBzTKAcE-7" value="" style="endArrow=classic;html=1;rounded=0;entryX=0.954;entryY=0.735;entryDx=0;entryDy=0;entryPerimeter=0;dashed=1;" edge="1" parent="1" target="dELnSr-HytfLNmatg29h-17">
          <mxGeometry width="50" height="50" relative="1" as="geometry">
            <mxPoint x="600" y="460" as="sourcePoint" />
            <mxPoint x="650" y="410" as="targetPoint" />
          </mxGeometry>
        </mxCell>
      </root>
    </mxGraphModel>
  </diagram>
</mxfile>
